<svg xmlns="http://www.w3.org/2000/svg" id="Laag_1" viewBox="0 0 741.4 83.3"><defs><style>.cls-1{fill:#ef816b;}.cls-1,.cls-2{stroke-width:0px;}.cls-2{fill:#fff;}</style></defs><path class="cls-2" d="M7.9,61.2s8.7,8.5,20,8.5c6.1,0,11.7-3.2,11.7-9.7C39.6,45.6,1.7,48.1,1.7,23.4,1.7,10,13.2.1,28.6.1s24,8.6,24,8.6l-6.3,11.9s-7.7-7-17.8-7c-6.8,0-12.1,4-12.1,9.6,0,14.3,37.8,10.8,37.8,36.5,0,12.8-9.7,23.6-26.5,23.6-17.9,0-27.7-11-27.7-11l7.9-11.1Z"></path><path class="cls-2" d="M97.1,41.3c8.5,0,13.5-5.4,13.5-13.8s-5-13.6-13.2-13.6h-13.9v27.4h13.6ZM68.8,1.4h31c15.1,0,25.6,10.5,25.6,26.2s-10.5,26.5-25.6,26.5h-16.4v27.7h-14.6V1.4Z"></path><rect class="cls-2" x="138.3" y="1.4" width="14.6" height="80.4"></rect><path class="cls-2" d="M165.8,53.3h14.5v3.7c0,9.5,5.2,12.7,10.6,12.7s10.3-3.3,10.3-12V13.9h-20.7V1.4h35.3v56.6c0,17.6-12.7,25.1-25.1,25.1s-24.9-7.8-24.9-25.1v-4.7h0Z"></path><polygon class="cls-2" points="235.2 1.4 249.9 1.4 249.9 34.1 260.3 34.1 279.2 1.4 295 1.4 272.3 39.6 272.3 39.9 296.4 81.8 280 81.8 260.3 46.7 249.9 46.7 249.9 81.8 235.2 81.8 235.2 1.4"></polygon><polygon class="cls-2" points="308.5 1.4 358.8 1.4 358.8 13.9 323.1 13.9 323.1 35 358.8 35 358.8 47.6 323.1 47.6 323.1 69.2 358.5 69.2 358.5 81.8 308.5 81.8 308.5 1.4"></polygon><path class="cls-2" d="M401.4,39.1c7.8,0,12.7-4.6,12.7-12.7s-3.3-12.5-14.7-12.5h-11.1v25.1l13.1.1h0ZM373.6,1.4h25.9c8.7,0,12.7.7,16.2,2.3,8,3.6,13.1,11.3,13.1,22,0,9.6-5.1,18.6-13.6,22v.2s1.1,1.1,2.7,4l16.5,30h-16.3l-16-30h-14v30h-14.6l.1-80.5h0Z"></path><path class="cls-1" d="M497.1,1.4h14.6l30.5,46.4c3.1,4.6,6.7,12.5,6.7,12.5h.2s-.8-7.7-.8-12.5V1.4h14.5v80.4h-14.5l-30.5-46.3c-3.1-4.6-6.7-12.5-6.7-12.5h-.2s.8,7.7.8,12.5v46.3h-14.6V1.4Z"></path><path class="cls-2" d="M618.9,0c19.6,0,29.7,11,29.7,11l-7,10.9s-9.2-8.5-22-8.5c-17,0-26.9,12.7-26.9,27.6s10.3,28.8,27.1,28.8c13.9,0,23.3-10.2,23.3-10.2l7.7,10.5s-11.1,13-31.6,13c-24.6,0-41.6-18.2-41.6-41.9,0-23.3,17.6-41.2,41.3-41.2"></path><path class="cls-2" d="M699.8,69.8c14.7,0,26.5-12.2,26.5-28.8s-11.8-27.6-26.5-27.6-26.5,11.8-26.5,27.6,11.7,28.8,26.5,28.8M699.8,0c23.7,0,41.6,18,41.6,41s-17.9,42.1-41.6,42.1-41.6-18.5-41.6-42.1S676.1,0,699.8,0"></path><rect class="cls-1" x="446.9" y="69.3" width="35.6" height="12.6"></rect><rect class="cls-1" x="446.9" y="35.1" width="35.6" height="12.6"></rect><rect class="cls-1" x="446.9" y="1.3" width="35.6" height="12.6"></rect></svg>